<?xml version="1.0" encoding="utf-8"?>
<!-- Generator: Adobe Illustrator 16.0.0, SVG Export Plug-In . SVG Version: 6.00 Build 0)  -->
<!DOCTYPE svg PUBLIC "-//W3C//DTD SVG 1.1//EN" "http://www.w3.org/Graphics/SVG/1.1/DTD/svg11.dtd">
<svg version="1.1" id="Layer_1" xmlns="http://www.w3.org/2000/svg" xmlns:xlink="http://www.w3.org/1999/xlink" x="0px" y="0px"
	 width="592px" height="279px" viewBox="0 0 592 279" enable-background="new 0 0 592 279" xml:space="preserve">
<path fill="#FFFFFF" d="M307.198,154.557c1.173-16.979,7.714-34.039,7.714-53.367c0-21.083-3.126-34.474-9.396-40.186v-0.992
	c16.78,3.08,21.799,4.617,33.206,4.617c11.853,0,15.754-1.538,29.845-4.617v0.992c-4.914,3.956-9.889,15.312-14.917,34.09
	c-5.032,18.78-7.554,36.187-7.554,52.219c0,22.833,14.661,34.256,25.39,34.256c8.063,0,21.968-9.007,27.772-27.013
	c5.157-16.694,7.725-34.7,7.725-54.02c0-20.65-3.128-33.821-9.398-39.533v-0.992c17.896,2.419,15.197,3.626,28.158,3.626
	c10.043,6.508,15.727,12.836,22.237,23.54c-1.438,4.94-2.861,10.544-4.279,16.811c-5.481,24.266-8.229,46.831-8.229,67.694
	c0,20.425,3.021,33.38,9.062,38.875v0.991c-2.688,0-7.83-0.33-15.438-0.991c-7.595-0.661-4.682-0.982-9.384-0.982
	c-13.635,0-16.308,2.304-26.159,6.912h-0.995l2.008-19.763c-10.958,12.729-32.368,19.103-49.811,19.103
	c-16.095,0-25.082-9.112-30.32-17.548C308.58,188.85,305.479,179.449,307.198,154.557z"/>
<path fill="#FFFFFF" d="M446.913,198.168c-2.815-7.605-2.96-15.304-2.96-15.304c13.098-14.527,24.745-29.865,34.957-46.008
	c-3.834-9.503-7.772-19.11-11.815-28.839c-9.464-19.224-20.827-34.694-34.104-46.41v-0.998c23.635,3.535,48.164,3.535,73.604,0
	v0.998c0.219,12.381,0.561,20.116,1.005,23.204c1.576,9.729,5.293,17.132,11.147,22.208c8.323-9.721,12.821-15.025,13.5-15.908
	c6.075-7.954,9.115-14.587,9.115-19.889c0-3.972-1.693-7.183-5.062-9.615v-0.998c20.029,2.878,38.592,2.878,55.699,0v0.998
	c-11.478,10.395-22.733,21.77-33.753,34.142c-14.634,16.363-23.077,28.403-25.321,36.137c1.12,8.181,6.629,20.336,16.534,36.468
	c11.71,19.672,24.309,34.258,37.815,43.762v0.996c-19.805-2.661-33.982-3.981-42.537-3.981c-11.709,0-22.285,1.32-31.731,3.981
	v-0.996c-0.904-10.168-2.821-18.569-5.747-25.202c-2.697-5.736-7.877-13.692-15.521-23.859c-4.951,5.748-9.908,11.384-14.853,16.904
	c-5.862,7.516-8.785,14.036-8.785,19.558c0,4.635,1.917,8.836,5.747,12.6v0.996c-7.279-1.242-13.87-2.092-19.764-2.555
	C454.084,210.557,449.754,205.84,446.913,198.168z"/>
<g>
	<path fill="#EF3B24" d="M155.416,221.914c-15.972,0-37.212-2.958-63.738-8.873c1.026-7.21,1.543-13.108,1.543-17.743
		c0-6.151-1.806-15.024-5.409-26.594c21.888,14.142,43.909,21.194,66.051,21.194c18.287,0,28.069-5.653,29.366-16.958
		c0.771-6.686-6.575-13.492-22.02-20.436c-23.695-11.05-37.729-17.989-42.111-20.825c-14.938-10.533-21.626-23.256-20.083-38.166
		c2.313-21.08,13.779-36.637,34.379-46.665c15.963-8.224,35.792-12.337,59.485-12.337c4.206,0,8.444,0.126,12.711,0.365
		l-23.66-26.006c-11.9-11.878-31.425-11.821-43.4,0.136L9.016,102.442c-11.97,11.953-12.027,31.438-0.133,43.317l133.581,124.374
		c11.9,11.875,31.413,11.814,43.387-0.139l46.734-66.439c-3.406,2.183-7.107,4.192-11.119,6.021
		C203.699,217.801,181.679,221.914,155.416,221.914z"/>
	<path fill="#EF3B24" d="M270.627,106.362l-23.244-25.549c0.117,0.377,0.229,0.754,0.355,1.132
		c-14.43-10.026-30.392-15.041-47.906-15.041c-15.2,0-23.31,4.113-24.335,12.337c-0.518,6.432,6.952,12.732,22.406,18.892
		c22.66,8.751,36.957,15.173,42.882,19.284c15.183,10.537,21.881,24.291,20.084,41.263c-0.228,2.049-0.543,4.046-0.938,5.998
		l10.553-15.003C282.461,137.722,282.53,118.241,270.627,106.362z"/>
</g>
</svg>
