<?xml version="1.0" encoding="utf-8"?>
<!-- Generator: Adobe Illustrator 16.0.0, SVG Export Plug-In . SVG Version: 6.00 Build 0)  -->
<!DOCTYPE svg PUBLIC "-//W3C//DTD SVG 1.1//EN" "http://www.w3.org/Graphics/SVG/1.1/DTD/svg11.dtd">
<svg version="1.1" id="Layer_1" xmlns="http://www.w3.org/2000/svg" xmlns:xlink="http://www.w3.org/1999/xlink" x="0px" y="0px"
	 width="347.333px" height="165.701px" viewBox="0 0 347.333 165.701" enable-background="new 0 0 347.333 165.701"
	 xml:space="preserve">
<path fill="#FFFFFF" d="M179.78,91.607c0.678-9.843,4.463-19.734,4.463-30.94c0-12.224-1.808-19.987-5.437-23.299v-0.575
	c9.71,1.785,12.616,2.677,19.216,2.677c6.859,0,9.118-0.892,17.271-2.677v0.575c-2.844,2.293-5.723,8.877-8.633,19.765
	c-2.911,10.889-4.37,20.98-4.37,30.276c0,13.237,8.483,19.861,14.693,19.861c4.666,0,12.712-5.223,16.072-15.663
	c2.983-9.678,4.47-20.117,4.47-31.318c0-11.972-1.811-19.608-5.439-22.92v-0.575c10.358,1.402,8.796,2.102,16.296,2.102
	c5.812,3.773,9.102,7.442,12.869,13.647c-0.832,2.865-1.656,6.114-2.477,9.747c-3.173,14.069-4.762,27.151-4.762,39.248
	c0,11.841,1.747,19.352,5.243,22.538v0.575c-1.554,0-4.53-0.191-8.933-0.575c-4.396-0.383-2.71-0.57-5.43-0.57
	c-7.891,0-9.438,1.336-15.139,4.008h-0.576l1.161-11.458c-6.342,7.379-18.731,11.075-28.825,11.075
	c-9.315,0-14.516-5.284-17.547-10.173C180.58,111.491,178.786,106.04,179.78,91.607z"/>
<path fill="#FFFFFF" d="M260.634,116.892c-1.629-4.409-1.712-8.873-1.712-8.873c7.58-8.421,14.32-17.314,20.229-26.674
	c-2.219-5.509-4.497-11.08-6.838-16.72c-5.476-11.146-12.052-20.115-19.735-26.907v-0.579c13.677,2.049,27.873,2.049,42.595,0v0.579
	c0.128,7.178,0.324,11.663,0.582,13.453c0.913,5.641,3.063,9.933,6.452,12.876c4.816-5.636,7.42-8.711,7.812-9.223
	c3.516-4.611,5.275-8.457,5.275-11.531c0-2.303-0.98-4.165-2.93-5.575v-0.579c11.592,1.669,22.334,1.669,32.234,0v0.579
	c-6.643,6.027-13.156,12.622-19.533,19.794c-8.469,9.487-13.355,16.467-14.654,20.952c0.648,4.743,3.836,11.79,9.568,21.144
	c6.777,11.404,14.068,19.861,21.885,25.371v0.578c-11.461-1.542-19.666-2.309-24.617-2.309c-6.775,0-12.896,0.766-18.363,2.309
	v-0.578c-0.524-5.895-1.634-10.765-3.326-14.611c-1.562-3.327-4.559-7.939-8.982-13.833c-2.866,3.333-5.734,6.6-8.596,9.801
	c-3.393,4.357-5.085,8.137-5.085,11.338c0,2.688,1.109,5.124,3.326,7.305v0.578c-4.213-0.721-8.027-1.212-11.437-1.481
	C264.786,124.075,262.279,121.341,260.634,116.892z"/>
<g>
	<path fill="#FFFFFF" d="M158.616,63.666l-13.432-14.791c0.066,0.211,0.115,0.423,0.186,0.634
		c-8.351-5.813-17.588-8.721-27.724-8.721c-8.796,0-13.49,2.385-14.083,7.153c-0.3,3.729,4.023,7.382,12.966,10.953
		c13.114,5.074,21.388,8.797,24.817,11.181c8.787,6.109,12.663,14.083,11.623,23.922c-0.134,1.203-0.334,2.366-0.566,3.511
		l6.131-8.731C165.464,81.848,165.504,70.553,158.616,63.666z"/>
	<path fill="#FFFFFF" d="M91.941,130.66c-9.243,0-21.535-1.714-36.886-5.144c0.594-4.181,0.893-7.6,0.893-10.288
		c0-3.566-1.045-8.71-3.13-15.417c12.667,8.198,25.411,12.287,38.225,12.287c10.583,0,16.244-3.277,16.995-9.831
		c0.447-3.876-3.805-7.823-12.743-11.848c-13.712-6.407-21.834-10.43-24.371-12.074c-8.645-6.107-12.515-13.483-11.622-22.127
		c1.339-12.222,7.974-21.241,19.896-27.055c9.238-4.768,20.713-7.153,34.425-7.153c2.436,0,4.892,0.081,7.363,0.22L107.287,7.143
		C100.4,0.256,89.101,0.289,82.17,7.221L7.217,61.393c-6.927,6.93-6.96,18.228-0.077,25.114l77.305,72.109
		c6.887,6.885,18.179,6.85,25.109-0.081l27.061-38.542c-1.978,1.271-4.119,2.448-6.45,3.513
		C119.884,128.276,107.14,130.66,91.941,130.66z"/>
</g>
</svg>
