<?xml version="1.0" encoding="utf-8"?>
<!-- Generator: Adobe Illustrator 16.0.0, SVG Export Plug-In . SVG Version: 6.00 Build 0)  -->
<!DOCTYPE svg PUBLIC "-//W3C//DTD SVG 1.1//EN" "http://www.w3.org/Graphics/SVG/1.1/DTD/svg11.dtd">
<svg version="1.1" id="Layer_1" xmlns="http://www.w3.org/2000/svg" xmlns:xlink="http://www.w3.org/1999/xlink" x="0px" y="0px"
	 width="595.28px" height="841.89px" viewBox="0 0 595.28 841.89" enable-background="new 0 0 595.28 841.89" xml:space="preserve">
<path fill="#CC372B" d="M226.646,249.486c-6.93,6.93-18.222,6.965-25.109,0.081l-77.305-72.109
	c-6.883-6.887-6.851-18.184,0.077-25.114l74.953-54.172c6.93-6.932,18.23-6.965,25.117-0.079l51.329,56.523
	c6.888,6.887,6.848,18.182-0.082,25.111"/>
<path fill="#FFFFFF" d="M296.872,182.557c0.678-9.843,4.463-19.734,4.463-30.94c0-12.224-1.808-19.987-5.437-23.299v-0.575
	c9.71,1.785,12.616,2.677,19.216,2.677c6.859,0,9.118-0.892,17.271-2.677v0.575c-2.844,2.293-5.723,8.877-8.633,19.765
	c-2.911,10.889-4.37,20.98-4.37,30.276c0,13.237,8.483,19.861,14.693,19.861c4.666,0,12.712-5.223,16.072-15.663
	c2.983-9.678,4.47-20.117,4.47-31.318c0-11.972-1.811-19.608-5.439-22.92v-0.575c10.358,1.402,8.796,2.102,16.296,2.102
	c5.812,3.773,9.102,7.442,12.869,13.647c-0.832,2.865-1.656,6.114-2.477,9.747c-3.173,14.069-4.762,27.151-4.762,39.248
	c0,11.841,1.747,19.352,5.243,22.538v0.575c-1.554,0-4.53-0.191-8.933-0.575c-4.396-0.383-2.71-0.57-5.43-0.57
	c-7.891,0-9.438,1.336-15.139,4.008h-0.576l1.161-11.458c-6.342,7.379-18.731,11.075-28.825,11.075
	c-9.315,0-14.516-5.284-17.547-10.173C297.671,202.44,295.877,196.99,296.872,182.557z"/>
<path fill="#FFFFFF" d="M377.726,207.842c-1.629-4.409-1.712-8.873-1.712-8.873c7.58-8.421,14.32-17.314,20.229-26.674
	c-2.219-5.509-4.497-11.08-6.838-16.72c-5.476-11.146-12.052-20.115-19.735-26.907v-0.579c13.677,2.049,27.873,2.049,42.595,0v0.579
	c0.128,7.178,0.324,11.663,0.582,13.453c0.913,5.641,3.063,9.933,6.451,12.876c4.817-5.636,7.42-8.711,7.813-9.223
	c3.516-4.611,5.274-8.457,5.274-11.531c0-2.303-0.98-4.165-2.929-5.575v-0.579c11.591,1.669,22.333,1.669,32.233,0v0.579
	c-6.643,6.027-13.155,12.622-19.532,19.794c-8.469,9.487-13.356,16.467-14.655,20.952c0.649,4.743,3.836,11.79,9.569,21.144
	c6.776,11.404,14.068,19.861,21.885,25.371v0.578c-11.462-1.542-19.667-2.309-24.617-2.309c-6.776,0-12.896,0.766-18.363,2.309
	v-0.578c-0.524-5.895-1.634-10.765-3.326-14.611c-1.562-3.327-4.559-7.939-8.982-13.833c-2.866,3.333-5.734,6.6-8.596,9.801
	c-3.393,4.357-5.085,8.137-5.085,11.338c0,2.688,1.109,5.124,3.326,7.305v0.578c-4.213-0.721-8.027-1.212-11.437-1.481
	C381.877,215.025,379.37,212.291,377.726,207.842z"/>
<g>
	<path fill="#FFFFFF" d="M172.146,216.466c0.594-4.181,0.893-7.6,0.893-10.288c0-3.566-1.045-8.71-3.13-15.417
		c12.667,8.198,25.411,12.287,38.225,12.287c10.583,0,16.244-3.277,16.995-9.831c0.447-3.876-3.805-7.823-12.743-11.848
		c-13.712-6.407-21.834-10.43-24.371-12.074c-8.645-6.107-12.515-13.483-11.622-22.127c1.339-12.222,7.974-21.241,19.896-27.055
		c9.238-4.768,20.713-7.153,34.425-7.153c11.029,0,22.428,1.42,34.202,4.251c-2.684,3.724-4.022,8.345-4.022,13.859
		c0,3.13,0.522,6.26,1.567,9.39c-8.351-5.813-17.588-8.721-27.724-8.721c-8.796,0-13.49,2.385-14.083,7.153
		c-0.3,3.729,4.023,7.382,12.966,10.953c13.114,5.074,21.388,8.797,24.817,11.181c8.787,6.109,12.663,14.083,11.623,23.922
		c-1.492,13.413-9.096,23.25-22.804,29.509c-10.282,4.769-23.026,7.153-38.225,7.153
		C199.79,221.609,187.498,219.895,172.146,216.466z"/>
</g>
</svg>
