<?xml version="1.0" encoding="utf-8"?>
<!-- Generator: Adobe Illustrator 16.0.0, SVG Export Plug-In . SVG Version: 6.00 Build 0)  -->
<!DOCTYPE svg PUBLIC "-//W3C//DTD SVG 1.1//EN" "http://www.w3.org/Graphics/SVG/1.1/DTD/svg11.dtd">
<svg version="1.1" id="Layer_1" xmlns="http://www.w3.org/2000/svg" xmlns:xlink="http://www.w3.org/1999/xlink" x="0px" y="0px"
	 width="592px" height="297px" viewBox="0 0 592 297" enable-background="new 0 0 592 297"
	 xml:space="preserve">
<path d="M307.202,164.526c1.17-18.073,7.712-36.233,7.712-56.809c0-22.444-3.126-36.698-9.396-42.779v-1.056
	c16.778,3.277,21.801,4.916,33.204,4.916c11.853,0,15.756-1.638,29.845-4.916v1.056c-4.913,4.209-9.892,16.299-14.917,36.291
	c-5.031,19.994-7.553,38.521-7.553,55.589c0,24.305,14.659,36.467,25.389,36.467c8.062,0,21.965-9.589,27.773-28.758
	c5.155-17.771,7.723-36.937,7.723-57.502c0-21.983-3.128-36.003-9.397-42.084v-1.055c17.897,2.573,15.198,3.859,28.159,3.859
	c10.041,6.927,15.727,13.664,22.237,25.056c-1.438,5.26-2.861,11.226-4.28,17.897c-5.482,25.832-8.229,49.852-8.229,72.063
	c0,21.74,3.018,35.531,9.06,41.381v1.056c-2.686,0-7.828-0.351-15.437-1.056c-7.596-0.703-4.683-1.046-9.382-1.046
	c-13.637,0-16.309,2.453-26.16,7.358h-0.995l2.006-21.038c-10.959,13.548-32.367,20.335-49.81,20.335
	c-16.096,0-25.083-9.702-30.32-18.678C308.582,201.032,305.483,191.026,307.202,164.526z"/>
<path d="M446.915,210.951c-2.814-8.095-2.957-16.292-2.957-16.292c13.099-15.462,24.745-31.79,34.954-48.976
	c-3.835-10.115-7.771-20.345-11.815-30.7c-9.462-20.465-20.826-36.934-34.102-49.404v-1.063c23.633,3.763,48.164,3.763,73.603,0
	v1.063c0.223,13.18,0.56,21.415,1.005,24.701c1.58,10.358,5.292,18.238,11.147,23.642c8.323-10.349,12.821-15.995,13.499-16.935
	c6.08-8.466,9.116-15.528,9.116-21.172c0-4.229-1.693-7.647-5.063-10.237v-1.063c20.032,3.064,38.591,3.064,55.698,0v1.063
	c-11.479,11.066-22.731,23.176-33.75,36.344c-14.634,17.419-23.078,30.235-25.323,38.47c1.121,8.708,6.63,21.647,16.535,38.822
	c11.708,20.938,24.31,36.466,37.816,46.584v1.061c-19.808-2.832-33.986-4.239-42.537-4.239c-11.709,0-22.286,1.406-31.732,4.239
	V225.8c-0.903-10.824-2.82-19.766-5.746-26.828c-2.698-6.108-7.878-14.578-15.52-25.398c-4.953,6.119-9.908,12.118-14.854,17.996
	c-5.862,8-8.786,14.939-8.786,20.817c0,4.935,1.916,9.409,5.746,13.414v1.061c-7.279-1.324-13.869-2.226-19.764-2.719
	C454.088,224.14,449.756,219.121,446.915,210.951z"/>
<g>
	<path fill="#CC372B" d="M270.632,113.224l-23.211-27.16c0.114,0.39,0.198,0.779,0.32,1.168
		c-14.432-10.673-30.392-16.012-47.907-16.012c-15.199,0-23.309,4.379-24.335,13.134c-0.519,6.847,6.952,13.554,22.406,20.111
		c22.66,9.315,36.958,16.152,42.882,20.529c15.184,11.217,21.881,25.857,20.085,43.924c-0.231,2.209-0.578,4.348-0.979,6.452
		l10.598-16.039C282.464,146.606,282.533,125.869,270.632,113.224z"/>
	<path fill="#CC372B" d="M155.413,236.231c-15.967-0.002-37.207-3.15-63.736-9.445c1.026-7.676,1.544-13.954,1.544-18.891
		c0-6.547-1.806-15.992-5.408-28.307c21.888,15.053,43.908,22.561,66.051,22.561c18.287,0,28.07-6.017,29.367-18.05
		c0.773-7.118-6.574-14.364-22.02-21.754c-23.694-11.764-37.729-19.151-42.113-22.169c-14.938-11.213-21.625-24.756-20.083-40.628
		c2.313-22.44,13.78-39,34.381-49.674c15.961-8.755,35.791-13.135,59.485-13.135c4.209,0,8.456,0.148,12.728,0.403L181.936,9.442
		c-11.899-12.644-31.428-12.583-43.402,0.145L9.016,109.052c-11.971,12.724-12.027,33.466-0.133,46.112l133.583,132.398
		c11.9,12.64,31.412,12.576,43.387-0.149l46.762-70.767c-3.418,2.334-7.118,4.496-11.148,6.451
		C203.698,231.854,181.678,236.231,155.413,236.231z"/>
</g>
</svg>
